Coordinates
version=1
nRows=12
nColumns=34
inDegrees=yes

Units are S.I. units (second, meters, Newtons, ...)
If the header above contains a line with 'inDegrees', this indicates whether rotational values are in degrees (yes) or radians (no).

endheader
time	pelvis_tilt	pelvis_list	pelvis_rotation	pelvis_tx	pelvis_ty	pelvis_tz	hip_flexion_r	hip_adduction_r	hip_rotation_r	knee_angle_r	ankle_angle_r	subtalar_angle_r	mtp_angle_r	hip_flexion_l	hip_adduction_l	hip_rotation_l	knee_angle_l	ankle_angle_l	subtalar_angle_l	mtp_angle_l	lumbar_extension	lumbar_bending	lumbar_rotation	arm_flex_r	arm_add_r	arm_rot_r	elbow_flex_r	pro_sup_r	arm_flex_l	arm_add_l	arm_rot_l	elbow_flex_l	pro_sup_l
      1.73333330	      1.87548056	      0.67079139	     -1.02306553	     -0.06994804	      1.25515037	     -0.08867770	     -6.22792642	     -0.66398268	     -2.63183950	      0.00000000	     11.00595208	      6.91822091	      0.00000000	     -6.88913733	      1.71425144	     -7.43591658	      0.00000000	      4.06726848	      3.65133712	      0.00000000	     -8.61114023	      3.09578386	      3.87831852	      7.24507047	    -10.05600581	     22.23804656	     16.36151174	     65.56593136	      5.24541231	    -11.83764604	     33.74619064	     26.03571161	     65.41982332
      1.75000000	      1.85337235	      0.64941901	     -1.01075539	     -0.07122673	      1.25233174	     -0.08997470	     -6.24946972	     -0.61050210	     -2.64230538	      0.00000000	     11.00788399	      6.90981048	      0.00000000	     -6.90352446	      1.78094187	     -7.44162998	      0.00000000	      4.06717102	      3.64729816	      0.00000000	     -8.61069550	      3.08627508	      3.88619471	      7.25180237	    -10.05405605	     22.24020399	     16.36255813	     65.56603587	      5.24066268	    -11.84246872	     33.74750950	     26.02752644	     65.42010956
      1.76666670	      1.86001936	      0.63469721	     -0.78877201	     -0.06952017	      1.24960639	     -0.09057706	     -6.34041016	     -0.54729691	     -2.73248446	      0.00000000	     11.06882965	      6.81735802	      0.00000000	     -6.90292142	      1.83266621	     -7.47228633	      0.00000000	      4.12714235	      3.60645502	      0.00000000	     -8.59693649	      3.02750742	      3.99609671	      7.35501311	    -10.06306925	     22.25351860	     16.38310662	     65.56710441	      5.17115292	    -11.87013809	     33.76068938	     25.95977339	     65.42165705
      1.78333330	      2.26337579	      0.64215446	     -0.36776445	     -0.07189639	      1.25585980	     -0.09044122	     -6.86145834	     -0.48424762	     -3.25346932	      0.00000000	     11.16758287	      5.76224626	      0.00000000	     -7.27877432	      1.89376586	     -6.82787455	      0.00000000	      4.77687943	      3.53835054	      0.00000000	     -9.13336978	      2.97370252	      3.58437902	      7.81680150	    -10.08433469	     23.11652783	     16.23042253	     65.61479741	      5.74943534	    -11.65677411	     34.33106924	     24.47748925	     65.51465796
      1.80000000	      2.24574340	      0.61559535	     -0.25458347	     -0.06876293	      1.25960159	     -0.09112934	     -6.86629553	     -0.44571568	     -3.27720510	      0.00000000	     11.17608766	      5.73743877	      0.00000000	     -7.28461852	      1.92452264	     -6.83017470	      0.00000000	      4.78317813	      3.53996073	      0.00000000	     -9.13023812	      2.94309643	      3.68105093	      7.87191754	    -10.06478674	     23.13250996	     16.24482083	     65.61612089	      5.69207782	    -11.65711559	     34.34401491	     24.45667765	     65.51548194
      1.81666670	      2.23823151	      0.59094485	     -0.13489395	     -0.06721761	      1.25734428	     -0.09111079	     -6.89198527	     -0.40111249	     -3.34760779	      0.00000000	     11.17491855	      5.68639729	      0.00000000	     -7.30518845	      1.93115432	     -6.83558826	      0.00000000	      4.79243492	      3.54104227	      0.00000000	     -9.12118349	      2.89644497	      3.80179422	      7.93832643	    -10.04333717	     23.15284300	     16.26302376	     65.61854776	      5.60760430	    -11.65278835	     34.36155860	     24.42651343	     65.51607504
      1.83333330	      2.24280060	      0.57055822	     -0.01896528	     -0.06793410	      1.25390874	     -0.09174358	     -6.91649587	     -0.36705719	     -3.45882691	      0.00000000	     11.17463875	      5.61013030	      0.00000000	     -7.33420972	      1.92709920	     -6.83977871	      0.00000000	      4.82134064	      3.53721027	      0.00000000	     -9.10167289	      2.84298967	      3.93915368	      8.01762277	    -10.02505139	     23.17850572	     16.28519930	     65.62231644	      5.51198631	    -11.64699774	     34.38286634	     24.39119710	     65.51625647
      1.85000000	      2.29698833	      0.58786939	      0.16202986	     -0.06774509	      1.25623177	     -0.09239522	     -7.02652692	     -0.37584211	     -4.08458408	      0.00000000	     10.96202967	      5.19900165	      0.00000000	     -7.42320203	      1.95345345	     -6.78512424	      0.00000000	      4.96597084	      3.58303400	      0.00000000	     -9.12793932	      2.79036024	      4.07842387	      8.00527233	    -10.04595898	     23.44873585	     16.23782413	     65.66065929	      5.54193460	    -11.58075538	     34.51896720	     24.25632168	     65.51114817
      1.86666670	      2.29438378	      0.56454696	      0.30680897	     -0.06983947	      1.25327882	     -0.09160289	     -7.03824828	     -0.33308112	     -4.08507490	      0.00000000	     10.95993619	      5.19100244	      0.00000000	     -7.40202986	      1.93403206	     -6.78860852	      0.00000000	      4.98594615	      3.57749459	      0.00000000	     -9.12837583	      2.73259302	      4.18086516	      8.12089480	    -10.02731233	     23.47123947	     16.27385780	     65.66482754	      5.50896948	    -11.59428372	     34.53382191	     24.22996988	     65.51016254
      1.88333330	      2.28411367	      0.54573374	      0.43171464	     -0.06793306	      1.25462650	     -0.09239568	     -7.04946691	     -0.29212938	     -4.11110384	      0.00000000	     10.95752653	      5.16990261	      0.00000000	     -7.32291911	      1.90261048	     -6.77062772	      0.00000000	      5.00136390	      3.58628441	      0.00000000	     -9.17236308	      2.65776917	      4.28676811	      8.24870277	     -9.98907635	     23.50435408	     16.31711001	     65.67148130	      5.48609801	    -11.61008320	     34.55320988	     24.19818477	     65.50852805
      1.90000000	      2.33518523	      0.56565754	      0.54548646	     -0.06989879	      1.25604729	     -0.09241503	     -7.08194676	     -0.28185265	     -4.17800063	      0.00000000	     10.78171066	      4.75405798	      0.00000000	     -7.29774954	      1.90914923	     -6.66506093	      0.00000000	      5.13029869	      3.82326738	      0.00000000	     -9.49553989	      2.44841023	      4.43004494	      8.82518689	    -10.33439211	     28.30064763	     16.18230945	     66.29551187	      6.35324511	    -11.66078631	     37.32733595	     22.97045182	     65.12720415
      1.91666670	      2.32241914	      0.54897807	      0.69283315	     -0.06991596	      1.25445792	     -0.09197614	     -7.09594541	     -0.24572738	     -4.18034946	      0.00000000	     10.78951222	      4.75110422	      0.00000000	     -7.22268457	      1.87991179	     -6.66044474	      0.00000000	      5.13893608	      3.82709985	      0.00000000	     -9.53926776	      2.41089030	      4.51030380	      8.91437473	    -10.31122294	     28.30496621	     16.21027733	     66.29133519	      6.30125176	    -11.66135732	     37.33683447	     22.96194607	     65.12241845
